<svg id="Layer_2" data-name="Layer 2" xmlns="http://www.w3.org/2000/svg" viewBox="0 0 300 300"><defs><style>.cls-1{fill:#e44332;}</style></defs><title>tran-logo</title><path class="cls-1" d="M142.91,185.85a46.25,46.25,0,0,1-11.78,4.21,93.18,93.18,0,0,1-17.47,2.2l-1.19,0,.14,1.15c1.3,9.12-.54,17-2.34,24.54-.29,1.33-.61,2.63-.9,3.92-.11.4-.79.69-1.69.83a9.49,9.49,0,0,1-2.31.15,14.58,14.58,0,0,1-2.52-.33c-1.55-.32-2.77-.72-2.92-1.12,0-.61,0-1.22,0-1.87,0-3.6-.11-7.67-.11-11.78,0-9.84.36-19.71,2-23a13.81,13.81,0,0,1,3-3.2,50.53,50.53,0,0,1,5.76-4.29c2.13-1.37,7.75-4.57,12.86-7.28,3.1-1.65,6-3.13,7.78-3.82a69.7,69.7,0,0,0,5.3,10.88,58.88,58.88,0,0,0,6.41,8.76"/><path class="cls-1" d="M219.07,219.93a8.36,8.36,0,0,1-1.36,2.45,10.08,10.08,0,0,1-2.09,2c-1.05.65-2.09.93-2.92.43l0,0c-.54-.29-1.08-.62-1.62-.94-4.18-2.34-8.54-4.83-11.89-7L196.38,215c-4.79-3.21-9-6-15.06-8.29-1.34-.5-2.63-1-4-1.44a94.22,94.22,0,0,1-9.91-3.93c-9.8-4.9-12.36-7.24-16.57-11.06-1.26-1.12-2.63-2.41-4.43-3.93A46.74,46.74,0,0,1,138.34,176a65.4,65.4,0,0,1-5.62-11.75c5.83-.18,16.5-.93,24.68-7.24.82,1.12,1.65,2.13,2.45,3.1,3.24,4,6,7.39,6.05,15.17,0,.61-.07,1.47-.22,2.52a17.44,17.44,0,0,1-1,3.57,1.08,1.08,0,0,0,.58,1.4,1,1,0,0,0,1.36-.58,16.36,16.36,0,0,0,1-3.27,56.32,56.32,0,0,1,9.51,8.64,63.89,63.89,0,0,0,9.29,8.47l.69.47a67.15,67.15,0,0,0,12,7h0c8.32,3.1,14.51,8.72,19.95,14.16a2.51,2.51,0,0,1,0,2.3"/><path class="cls-1" d="M155.88,123.05a35.22,35.22,0,0,0-3.6,10.42,38,38,0,0,0-.61,6.12c0,.72-1.12,1.48-2.78,2.2a28.39,28.39,0,0,1-5.91,1.55,42.21,42.21,0,0,1-7,.54c-4.32,0-8.07-.8-8.79-2.49a28.14,28.14,0,0,0-1.87-3.82c-1.76-3.2-3.46-6.34-.4-10.7a6.43,6.43,0,0,0,2.53.51,3.87,3.87,0,0,0,3.24-1.7,7.76,7.76,0,0,0,1.19-3.64,24.44,24.44,0,0,0-1.37-9.83,15.67,15.67,0,0,0-1.59-3.53l-.21-.33h1.33c1.66,1.45,2.67,4.44,3.64,7.43,1.48,4.32,2.92,8.57,6.63,9.22,4.65.79,7.28-.51,8.79-2.81s1.66-5.12,1.69-7.89c0-.43,0-.9,0-1.41,0-2.63,0-5.72,1.22-7.71a6.7,6.7,0,0,0,1.41.44,9.22,9.22,0,0,0-1.08,3.82,26.12,26.12,0,0,0,.32,7.67c.51,2.56,1.41,4.75,2.63,5.62a2.19,2.19,0,0,0,.54.32"/><path class="cls-1" d="M152.82,89.33c-1.66-1.94-2.95-2.23-4.07-1.51s-1.69,2.23-2.34,4c-.83,2.12-1.77,4.61-3.46,5.08a44.23,44.23,0,0,0-.33-11.17c-.61-3.1-1.73-5.77-3.74-7.39a4.09,4.09,0,0,0-1.7-.68,12.26,12.26,0,0,1,1.41-.61c3.85-1.52,8-1.63,11.06.25,4,2.38,3.67,6.81,3.17,12"/><path class="cls-1" d="M140.71,97.83a49.86,49.86,0,0,1-1.18,7.64,8.9,8.9,0,0,1-2.13,4,9.34,9.34,0,0,1-1-1.77,18.9,18.9,0,0,0-3.39-4.83c-.61-.79-1.05-1.29-1.41-1.69-.54-.65-.9-1.12-1.51-1.94-2.7-3.79-3.24-7.53-2.38-10.85a15,15,0,0,1,4-6.88,21.1,21.1,0,0,1,1.62-1.48,4.3,4.3,0,0,1,1.91-.47,3.86,3.86,0,0,1,2.3.4c1.55,1.26,2.49,3.5,3,6.13a42,42,0,0,1,.18,11.7"/></svg>